<svg xmlns="http://www.w3.org/2000/svg" width="79.331" height="45.401" viewBox="0 0 79.331 45.401">
  <path id="Path_1" data-name="Path 1" d="M11.947-26.463V-16.03H5.125V-46.316H15.811q11.447,0,11.447,9.652a9.261,9.261,0,0,1-3.284,7.381A13.011,13.011,0,0,1,15.2-26.463Zm0-14.615v9.44h2.682q5.449,0,5.449-4.773,0-4.667-5.449-4.667Zm29.821,9.44a5.789,5.789,0,0,0-2.809-.655,4.047,4.047,0,0,0-3.4,1.595,6.956,6.956,0,0,0-1.225,4.34V-16.03H27.66V-37.657h6.674l1.352,4.013H34.418q1.584-4.393,5.7-4.393a4.3,4.3,0,0,1,1.647.253ZM52.982-15.5q-5.407,0-8.5-3.031a10.987,10.987,0,0,1-3.094-8.226q0-5.364,3.21-8.4a12.13,12.13,0,0,1,8.68-3.031q5.385,0,8.448,3.031a10.773,10.773,0,0,1,3.062,8.015,11.435,11.435,0,0,1-3.157,8.511Q58.473-15.5,52.982-15.5Zm.169-17.571a4.451,4.451,0,0,0-3.675,1.626,7.171,7.171,0,0,0-1.309,4.6q0,6.23,5.026,6.23,4.794,0,4.794-6.4Q57.987-33.074,53.151-33.074Zm31.3-4.583L77.269-27.181l7.1,11.151H76.678l-3.126-5.829q-.38-.7-.908-1.964H72.56a13.713,13.713,0,0,1-.866,1.9L68.6-16.03,62.057-4.048H52.575L60.869-16.03,68.188-26.8,61.417-37.51,52.575-49.45h9.482L72.137-31.6A13.294,13.294,0,0,1,73-29.568h.084A14.289,14.289,0,0,1,74-31.638l3.147-6.04Z" transform="translate(-5.125 49.45)"/>
</svg>
